<svg version="1.1" id="Layer_1" xmlns="http://www.w3.org/2000/svg" xmlns:xlink="http://www.w3.org/1999/xlink" x="0px" y="0px"
	 width="100%" viewBox="0 0 640 640" enable-background="new 0 0 640 640" xml:space="preserve">
<g transform="translate(-60.305, -388.416) scale(2.2)">
<path fill="#000000" opacity="1.000000" stroke="none" 
	d="
M162.145950,396.997864 
	C162.354385,402.726501 161.697449,408.011597 162.555511,413.257477 
	C170.733215,411.936554 177.231720,404.637390 177.720947,395.953644 
	C178.160721,388.147430 178.016769,380.301941 177.944366,372.475494 
	C177.893417,366.968658 179.167755,362.130310 182.621689,357.620575 
	C199.634689,335.407166 216.468430,313.056335 233.335007,290.730988 
	C234.623871,289.024994 236.117279,287.843628 238.306442,287.876312 
	C242.711273,287.942108 247.164917,287.144714 251.850800,288.333710 
	C251.224045,291.391449 249.129105,293.179810 247.581070,295.220001 
	C231.172607,316.845123 214.802628,338.501007 198.181030,359.961761 
	C194.012589,365.343750 191.771286,370.763519 192.106583,377.758667 
	C192.478790,385.524170 193.221710,393.437073 191.319550,401.148376 
	C186.987564,418.710052 172.457214,430.478180 151.107407,428.467438 
	C149.102127,428.278564 147.952362,427.315125 148.002380,425.331024 
	C148.479385,406.405701 146.052399,387.356384 150.416824,368.595276 
	C152.640121,359.038147 156.840591,350.400116 162.690567,342.580017 
	C185.238388,312.438690 207.840179,282.337708 230.412247,252.214508 
	C231.495163,250.769348 232.898224,249.490585 233.144348,247.283493 
	C230.803101,243.975372 225.811935,243.731796 222.998596,239.196106 
	C235.142563,233.999954 246.918915,228.961075 259.775787,223.459885 
	C259.197052,237.529495 258.438629,250.405624 256.864868,263.628937 
	C251.947708,262.177460 249.812775,257.776703 245.199219,255.918427 
	C243.542755,258.073669 241.743500,260.373199 239.987732,262.705475 
	C219.954620,289.316467 200.271622,316.200714 179.772919,342.447937 
	C167.196564,358.551117 160.185669,375.922424 162.145950,396.997864 
z"/>
<path fill="#000000" opacity="1.000000" stroke="none" 
	d="
M146.241669,280.494080 
	C147.902618,281.222504 149.239883,281.803589 150.577133,282.384674 
	C145.320038,276.617950 138.542938,273.599182 131.464462,270.989105 
	C124.436775,268.397736 116.910545,267.891113 109.700500,265.947388 
	C109.967705,262.298157 112.196518,260.079102 113.665680,257.548828 
	C117.596603,250.778641 121.840210,244.188736 125.715668,237.388214 
	C127.478935,234.294113 129.701294,233.376083 133.117691,233.920898 
	C147.326477,236.186783 160.088562,241.346466 169.959061,252.218948 
	C172.613571,255.142899 174.353607,254.537292 176.790344,251.928864 
	C186.658264,241.365707 199.267029,236.171906 213.282990,233.953278 
	C214.518433,233.757721 215.918350,233.322083 217.270706,234.789780 
	C214.423050,239.035614 212.195572,243.109604 206.089127,244.679550 
	C191.491379,248.432556 180.385254,256.993866 174.884735,271.669373 
	C174.569504,272.510376 174.533539,273.697876 173.161377,274.006592 
	C171.298309,272.691193 171.115891,270.357849 170.216537,268.482361 
	C163.371628,254.207962 151.380997,246.983658 136.523193,243.590424 
	C134.266266,243.074997 132.607239,243.834656 131.425217,245.752594 
	C129.589859,248.730560 127.859520,251.777451 125.924965,254.688995 
	C123.672646,258.078735 124.162796,259.903687 128.389450,260.981293 
	C136.161682,262.962891 143.512573,266.035095 150.413361,270.246826 
	C159.830444,275.994293 167.219055,283.706024 173.293030,293.561493 
	C183.316208,278.002533 196.516785,267.451050 214.053864,262.343231 
	C202.107727,280.746216 188.922470,298.123901 172.727921,314.428864 
	C151.783783,284.343628 120.686150,278.036102 86.790916,279.459564 
	C85.955894,276.818665 87.622887,275.548737 88.517441,274.093842 
	C93.927826,265.294708 99.427673,256.550507 104.904396,247.792221 
	C108.340378,242.297501 109.716621,241.816833 117.270920,243.986801 
	C112.108185,252.631378 107.052422,261.096832 101.518204,270.363434 
	C117.238121,271.580078 132.129486,273.698334 146.241669,280.494080 
z"/>
<path fill="#000000" opacity="1.000000" stroke="none" 
	d="
M91.450928,294.545715 
	C90.058090,292.509705 88.113312,291.226440 87.781326,288.145142 
	C95.387093,288.145142 102.910217,287.765839 110.383560,288.214935 
	C134.615768,289.670990 152.753021,301.558502 166.205124,321.368896 
	C167.916687,323.889435 168.149307,325.662262 166.099472,327.917419 
	C164.010010,330.216217 162.683548,333.189087 159.220413,335.725067 
	C148.540161,320.722015 137.564285,305.942932 116.090599,303.426483 
	C119.425323,307.856323 122.069458,311.419647 124.766747,314.942291 
	C132.766220,325.389648 140.758255,335.843018 148.824936,346.238342 
	C150.284637,348.119476 150.909927,349.824982 149.832565,352.159241 
	C148.242859,355.603455 146.931107,359.175995 144.885330,364.208374 
	C126.733734,340.541290 109.202545,317.683167 91.450928,294.545715 
z"/>
<path fill="#000000" opacity="1.000000" stroke="none" 
	d="
M246.819244,265.567444 
	C250.424423,269.591553 252.983307,273.928680 255.856857,279.062134 
	C248.755661,279.062134 242.582214,279.062134 235.446457,279.062134 
	C239.136169,273.963745 241.838821,268.969055 246.819244,265.567444 
z"/>
<path fill="#000000" opacity="1.000000" stroke="none" 
	d="
M171.498901,231.429688 
	C177.699707,231.544571 181.125336,234.978500 179.789246,239.387222 
	C178.815536,242.600220 176.614655,244.391647 173.134750,244.338989 
	C169.874466,244.289642 167.718506,242.662231 166.995163,239.526016 
	C166.136627,235.803604 167.366119,232.970398 171.498901,231.429688 
z"/>
<path fill="#000000" opacity="1.000000" stroke="none" 
	d="
M170.697159,218.998611 
	C170.790176,216.482635 170.274536,213.536560 173.392120,213.739700 
	C176.240829,213.925308 176.124939,216.774475 175.710510,218.884171 
	C175.251450,221.221069 175.830750,223.969070 173.469711,225.955475 
	C170.922943,224.360672 171.045029,221.789688 170.697159,218.998611 
z"/>
<path fill="#000000" opacity="1.000000" stroke="none" 
	d="
M154.273956,224.289642 
	C158.069443,225.497101 161.007568,227.272141 162.044037,231.655121 
	C157.651886,232.111710 155.016052,229.806015 152.765564,227.039642 
	C151.921936,226.002609 152.646179,224.864639 154.273956,224.289642 
z"/>
<path fill="#000000" opacity="1.000000" stroke="none" 
	d="
M193.740524,225.502594 
	C192.758057,230.316650 189.131027,230.893356 185.264221,231.733948 
	C186.270905,226.402008 189.097504,224.319916 193.740524,225.502594 
z"/>
</g>
</svg>